<svg data-v-423bf9ae="" xmlns="http://www.w3.org/2000/svg" viewBox="0 0 345.11536386662095 163" class="iconAbove"><!----><!----><!----><g data-v-423bf9ae="" id="ebdf58e5-1c17-4785-bf87-18c9b82e3fc6" fill="#230A1B" transform="matrix(5.769230451809602,0,0,5.769230451809602,-4.211541573677408,83.8461588614085)"><path d="M7.59 13.62L9.10 13.62L9.10 3.32L7.55 3.32L7.55 9.30C7.55 9.65 7.60 10.02 7.63 10.37C7.45 10.07 7.27 9.76 7.06 9.45L3.02 3.32L0.73 3.32C0.74 3.39 0.92 4.14 0.92 4.17L0.92 13.55L2.48 13.55L2.48 6.59C2.48 6.29 2.42 5.96 2.39 5.66C2.58 5.96 2.79 6.29 2.98 6.59ZM17.14 10.07C17.14 8.05 15.86 6.41 13.75 6.41C11.66 6.41 10.36 8.06 10.36 10.07C10.36 12.08 11.63 13.72 13.75 13.72C15.86 13.72 17.14 12.08 17.14 10.07ZM15.29 10.08C15.29 11.10 15.06 12.60 13.75 12.60C12.47 12.60 12.21 11.06 12.21 10.08C12.21 9.10 12.47 7.56 13.75 7.56C15.06 7.56 15.29 9.06 15.29 10.08ZM26.54 13.55L28.22 13.55L28.22 8.81C28.22 7.43 27.80 6.41 26.26 6.41C25.37 6.41 24.63 6.80 24.00 7.43C23.69 6.71 23.03 6.41 22.26 6.41C21.36 6.41 20.76 6.78 20.12 7.34C20.08 7.04 20.01 6.72 19.88 6.44L18.12 6.65C18.45 7.06 18.55 8.08 18.55 8.57L18.55 13.55L20.23 13.55L20.23 8.50C20.57 8.13 21.15 7.73 21.64 7.73C22.36 7.73 22.53 8.26 22.53 8.86L22.53 13.55L24.22 13.55L24.22 8.48C24.54 8.16 25.16 7.73 25.62 7.73C26.39 7.73 26.54 8.22 26.54 8.90ZM39.91 13.62L41.43 13.62L41.43 3.32L39.87 3.32L39.87 9.30C39.87 9.65 39.93 10.02 39.96 10.37C39.77 10.07 39.59 9.76 39.38 9.45L35.35 3.32L33.05 3.32C33.07 3.39 33.25 4.14 33.25 4.17L33.25 13.55L34.80 13.55L34.80 6.59C34.80 6.29 34.75 5.96 34.72 5.66C34.90 5.96 35.11 6.29 35.31 6.59ZM49.46 10.07C49.46 8.05 48.19 6.41 46.07 6.41C43.99 6.41 42.69 8.06 42.69 10.07C42.69 12.08 43.96 13.72 46.07 13.72C48.19 13.72 49.46 12.08 49.46 10.07ZM47.61 10.08C47.61 11.10 47.39 12.60 46.07 12.60C44.80 12.60 44.53 11.06 44.53 10.08C44.53 9.10 44.80 7.56 46.07 7.56C47.39 7.56 47.61 9.06 47.61 10.08ZM58.87 13.55L60.55 13.55L60.55 8.81C60.55 7.43 60.13 6.41 58.59 6.41C57.69 6.41 56.95 6.80 56.32 7.43C56.01 6.71 55.36 6.41 54.59 6.41C53.69 6.41 53.09 6.78 52.44 7.34C52.40 7.04 52.33 6.72 52.21 6.44L50.44 6.65C50.78 7.06 50.88 8.08 50.88 8.57L50.88 13.55L52.56 13.55L52.56 8.50C52.89 8.13 53.48 7.73 53.97 7.73C54.68 7.73 54.85 8.26 54.85 8.86L54.85 13.55L56.55 13.55L56.55 8.48C56.87 8.16 57.48 7.73 57.95 7.73C58.72 7.73 58.87 8.22 58.87 8.90Z"></path></g><defs data-v-423bf9ae=""><linearGradient data-v-423bf9ae="" gradientTransform="rotate(25)" id="c629caf1-769b-4d3b-abb0-7d02124e4227" x1="0%" y1="0%" x2="100%" y2="0%"><stop data-v-423bf9ae="" offset="0%" style="stop-color: rgb(30, 11, 54); stop-opacity: 1;"></stop><stop data-v-423bf9ae="" offset="100%" style="stop-color: rgb(202, 55, 130); stop-opacity: 1;"></stop></linearGradient></defs><g data-v-423bf9ae="" id="778993a7-62ab-4db0-a4d9-6267179fc93f" transform="matrix(2.8125,0,0,2.8125,128,0)" stroke="none" fill="url(#c629caf1-769b-4d3b-abb0-7d02124e4227)"><path d="M0 16l16 16 16-16L16 0 0 16zm16 13.172L2.828 16 16 2.828 29.172 16 16 29.172z"></path><path d="M14.751 9.991v4.76h-2.262v-4.76H9.991v12.018h2.498v-4.76h2.262v4.76h2.498v-4.76h2.262v4.76h2.498V9.991h-2.498v4.76h-2.262v-4.76z"></path></g><!----></svg>